<?xml version="1.0" encoding="UTF-8"?>
<!DOCTYPE svg PUBLIC "-//W3C//DTD SVG 1.1//EN" "http://www.w3.org/Graphics/SVG/1.1/DTD/svg11.dtd">
<!-- Creator: CorelDRAW 2018 -->
<svg xmlns="http://www.w3.org/2000/svg" xml:space="preserve" width="29.7cm" height="21cm" version="1.1" style="shape-rendering:geometricPrecision; text-rendering:geometricPrecision; image-rendering:optimizeQuality; fill-rule:evenodd; clip-rule:evenodd"
viewBox="0 0 29700 21000"
 xmlns:xlink="http://www.w3.org/1999/xlink">
 <defs>
  <style type="text/css">
   <![CDATA[
    .fil0 {fill:#FEFEFE}
   ]]>
  </style>
 </defs>
 <g id="Layer_x0020_1">
  <metadata id="CorelCorpID_0Corel-Layer"/>
  <path class="fil0" d="M19457.92 14774.1l-3001.73 0 -4703.93 -5271.33 5655.69 0c402.69,0 604,-323.33 604,-970.05 0,-646.72 -201.31,-970.08 -604,-970.08l-6808.77 0 0 2101.61 -2196.39 -2482.52 0 -1815.48 9133.27 0c841.97,0 1506.98,329.48 1995.04,988.4 451.49,597.88 677.24,1323.92 677.24,2178.07 0,854.15 -225.75,1580.16 -677.24,2178.07 -488.06,658.89 -1153.07,988.37 -1995.04,988.37l-841.92 0 2763.78 3074.94zm-8858.74 -3123.58l0 1422.08 -2196.39 -2482.55 0 -1422.08 2196.39 2482.55zm0 3079.53l0 44.08 -2196.39 0 0 -2197.84 1905.5 2153.76 290.89 0z"/>
  <polygon class="fil0" points="8402.82,7540.73 14912.66,14774.1 13738.75,14774.1 8402.82,8859.99 "/>
  <polygon class="fil0" points="8402.82,10992.88 11793.96,14774.1 10671.17,14774.1 8402.82,12179.21 "/>
 </g>
</svg>
